<svg width="15" height="15" viewBox="0 0 15 15" fill="none" xmlns="http://www.w3.org/2000/svg">
<path d="M7.44316 0H7.56035C8.39355 0.0814453 8.96162 0.669434 8.96279 1.50879C8.96396 2.32129 8.96484 3.13447 8.96543 3.94834C8.96544 3.9499 8.96591 3.95142 8.96678 3.95271C8.96765 3.954 8.96888 3.955 8.97032 3.9556C8.97176 3.95619 8.97334 3.95635 8.97487 3.95605C8.9764 3.95575 8.9778 3.955 8.97891 3.95391C9.15645 3.77402 9.35713 3.55137 9.5373 3.42041C10.2 2.93789 11.1352 3.08936 11.6027 3.76816C11.9314 4.24512 11.9455 4.86416 11.6476 5.36016C11.5116 5.58604 11.2682 5.80312 11.0637 6.00615C11.0441 6.02549 11.0482 6.03516 11.076 6.03516C11.8871 6.03496 12.7053 6.03516 13.5305 6.03574C14.3543 6.03633 14.9265 6.65156 15 7.45049V7.5457C14.9569 8.36514 14.3186 8.96221 13.4985 8.96338C12.686 8.96436 11.8728 8.96494 11.0587 8.96514C11.0565 8.96515 11.0544 8.96582 11.0526 8.96705C11.0508 8.96828 11.0495 8.97001 11.0487 8.97203C11.0479 8.97405 11.0477 8.97626 11.0482 8.97837C11.0487 8.98048 11.0498 8.98241 11.0514 8.98389C11.2421 9.1708 11.4773 9.3835 11.6109 9.5792C12.1699 10.3983 11.7439 11.5699 10.781 11.8134C10.3772 11.9153 10.0027 11.8642 9.65742 11.6599C9.41982 11.5192 9.18662 11.2611 8.9792 11.0458C8.97801 11.0446 8.9765 11.0438 8.97486 11.0435C8.97323 11.0431 8.97154 11.0433 8.97 11.0439C8.96847 11.0445 8.96716 11.0455 8.96624 11.0468C8.96533 11.0482 8.96484 11.0497 8.96484 11.0514C8.96484 11.7965 8.96484 12.5409 8.96484 13.2847C8.96484 13.5497 8.95078 13.7438 8.92266 13.8668C8.77441 14.514 8.21543 14.9634 7.54951 15H7.44697C6.63662 14.9364 6.03809 14.3314 6.03691 13.5205C6.03574 12.6984 6.03506 11.8853 6.03486 11.081C6.03486 11.0487 6.02363 11.0441 6.00117 11.0672C5.62822 11.4501 5.31211 11.802 4.75869 11.855C3.66299 11.9599 2.84092 10.9002 3.2376 9.86221C3.37383 9.50566 3.68291 9.24287 3.94834 8.98506C3.95 8.9834 3.95114 8.98128 3.95162 8.97898C3.95209 8.97667 3.95188 8.97428 3.951 8.9721C3.95013 8.96991 3.94864 8.96803 3.9467 8.96669C3.94477 8.96535 3.94249 8.96461 3.94014 8.96455C3.19756 8.96533 2.45361 8.96523 1.7083 8.96426C1.43486 8.96387 1.24062 8.9502 1.12559 8.92324C0.482519 8.77236 0.0433594 8.21514 0 7.55684V7.43965C0.0521484 6.62402 0.683496 6.04072 1.50146 6.03867C2.31631 6.03652 3.13174 6.03506 3.94775 6.03428C3.94925 6.03429 3.95072 6.03386 3.95198 6.03304C3.95324 6.03223 3.95422 6.03106 3.95482 6.02968C3.95541 6.0283 3.95559 6.02678 3.95532 6.02531C3.95505 6.02383 3.95436 6.02247 3.95332 6.02139C3.8209 5.89053 3.68936 5.75869 3.55869 5.62588C2.8582 4.91309 3.06533 3.73975 3.93867 3.29443C4.46719 3.0252 5.16533 3.11016 5.58896 3.52236C5.73486 3.66455 5.87959 3.80908 6.02314 3.95596C6.02411 3.95693 6.02534 3.9576 6.02668 3.95788C6.02802 3.95816 6.02941 3.95805 6.03069 3.95755C6.03196 3.95705 6.03306 3.95619 6.03386 3.95508C6.03465 3.95396 6.0351 3.95264 6.03516 3.95127C6.03516 3.13037 6.03535 2.30889 6.03574 1.48682C6.03604 0.675293 6.63193 0.0626953 7.44316 0ZM0.80332 6.92637C0.30498 7.49531 0.72627 8.37891 1.46484 8.37891C3.05273 8.37891 4.64062 8.37891 6.22852 8.37891C6.54053 8.37891 6.62109 8.48672 6.62109 8.80078C6.62109 10.3213 6.62109 11.842 6.62109 13.3629C6.62109 13.5562 6.63506 13.699 6.66299 13.7912C6.91025 14.6065 8.08564 14.6145 8.3332 13.8073C8.36406 13.7071 8.37939 13.5241 8.3792 13.2583C8.37861 11.7487 8.37861 10.2392 8.3792 8.72959C8.37949 8.44541 8.52275 8.37861 8.79258 8.37861C10.3197 8.3792 11.8469 8.3792 13.374 8.37861C13.5715 8.37842 13.7151 8.36406 13.805 8.33555C14.6206 8.07656 14.6057 6.90498 13.7833 6.66152C13.6915 6.63418 13.5539 6.62061 13.3705 6.6208C11.8383 6.62139 10.306 6.62139 8.77353 6.6208C8.54912 6.6208 8.37861 6.55518 8.37861 6.30615C8.3792 4.74268 8.3792 3.1793 8.37861 1.61602C8.37842 1.4334 8.36631 1.30088 8.34229 1.21846C8.23359 0.844629 7.89756 0.599414 7.50703 0.585938C7.03213 0.569238 6.6208 0.98877 6.62109 1.46484C6.62129 3.05195 6.62119 4.63906 6.6208 6.22617C6.6208 6.45088 6.55547 6.62139 6.30615 6.62139C4.75186 6.6208 3.19766 6.6209 1.64355 6.62168C1.27236 6.62168 1.03506 6.66182 0.80332 6.92637ZM5.17266 3.93867C4.87178 3.66826 4.42939 3.65654 4.09951 3.87715C3.73857 4.11885 3.62021 4.62891 3.82002 5.00186C3.86611 5.08799 3.95869 5.20049 4.09775 5.33936C4.32568 5.56768 4.55391 5.7957 4.78242 6.02344C4.79023 6.03125 4.79961 6.03516 4.81055 6.03516H6.02051C6.02439 6.03516 6.02812 6.03361 6.03087 6.03087C6.03361 6.02812 6.03516 6.02439 6.03516 6.02051V4.8126C6.03516 4.80342 6.03193 4.79551 6.02549 4.78887C5.59268 4.34375 5.3084 4.06035 5.17266 3.93867ZM11.1899 4.97461C11.56 4.23223 10.7329 3.43623 10.0078 3.81416C9.91992 3.86006 9.79922 3.95957 9.6457 4.1127C9.42227 4.33574 9.19922 4.55898 8.97656 4.78242C8.96875 4.79023 8.96484 4.79961 8.96484 4.81055V6.02051C8.96484 6.02439 8.96639 6.02812 8.96913 6.03087C8.97188 6.03361 8.97561 6.03516 8.97949 6.03516H10.1886C10.1985 6.03516 10.207 6.03164 10.2141 6.02461C10.4447 5.7998 10.6723 5.57246 10.8967 5.34258C11.0463 5.18926 11.144 5.0666 11.1899 4.97461ZM3.74883 10.1801C3.58213 10.8932 4.3043 11.5324 4.98721 11.1879C5.07568 11.1434 5.2043 11.0369 5.37305 10.8686C5.59062 10.6514 5.8085 10.4333 6.02666 10.2144C6.03232 10.2087 6.03516 10.2019 6.03516 10.1938V8.97949C6.03516 8.97561 6.03361 8.97188 6.03087 8.96913C6.02812 8.96639 6.02439 8.96484 6.02051 8.96484H4.80615C4.79795 8.96484 4.79092 8.96777 4.78506 8.97363C4.53486 9.22363 4.28477 9.47393 4.03477 9.72451C3.8918 9.86748 3.79102 10.0008 3.74883 10.1801ZM9.8127 11.0467C10.4953 11.6716 11.5286 10.9509 11.2222 10.0901C11.1825 9.97842 11.1251 9.88486 11.0499 9.80947C10.7737 9.53193 10.4981 9.25615 10.2231 8.98213C10.2177 8.97665 10.2111 8.9723 10.204 8.96933C10.1968 8.96637 10.1891 8.96484 10.1812 8.96484H8.97949C8.97561 8.96484 8.97188 8.96639 8.96913 8.96913C8.96639 8.97188 8.96484 8.97561 8.96484 8.97949V10.1874C8.96484 10.1968 8.96807 10.2048 8.97451 10.2114C9.37705 10.6253 9.65645 10.9037 9.8127 11.0467Z" fill="url(#paint0_linear_251_628)"/>
<defs>
<linearGradient id="paint0_linear_251_628" x1="0" y1="0" x2="15" y2="15" gradientUnits="userSpaceOnUse">
<stop stop-color="#B381E0"/>
<stop offset="1" stop-color="#5FABD9"/>
</linearGradient>
</defs>
</svg>
