<svg width="120" height="120" fill="none" xmlns="http://www.w3.org/2000/svg"><path d="M51.887 11.466c-4.302 6.338-9.208 13.531-10.906 16.024l-3.056 4.558H18.98C6.075 32.047 0 32.154 0 32.404c0 .213.34.818.717 1.353 1.434 1.887 17.472 25.46 17.66 25.922.114.285-.49 1.496-1.32 2.742-.83 1.211-4.906 7.229-9.095 13.354C3.774 81.862.264 87.133.151 87.418c-.189.463 1.623.534 14.981.534 8.377 0 15.811.143 16.453.321.68.178 2.226.392 3.396.427 1.208.036 2.49.178 2.906.25.377.106 1.585 1.46 2.679 3.062 1.057 1.602 3.358 4.95 5.094 7.513 1.736 2.528 4.529 6.623 6.227 9.08 1.66 2.457 4.113 6.018 5.434 7.941 1.32 1.887 2.528 3.454 2.641 3.454.264 0 5.887-8.083 17.208-24.783 2.075-3.063 4.113-5.769 4.528-6.018.415-.25 1.736-.463 2.906-.499 1.17-.035 2.679-.213 3.396-.391.68-.214 7.962-.356 16.491-.356 14.867 0 15.207 0 15.018-.677-.075-.392-1.886-3.17-3.924-6.16-2.076-2.991-5.51-8.012-7.66-11.146-2.114-3.133-4.491-6.623-5.321-7.762l-1.434-2.101 1.811-2.706c2.415-3.668 7.019-10.362 14.302-20.867 1.509-2.136 2.717-4.024 2.717-4.202 0-.142-8.528-.285-18.981-.285H82.038l-5.434-7.94A5816.82 5816.82 0 0 1 61.66 2.243C60.868.997 60.076 0 59.962 0c-.15 0-3.773 5.163-8.075 11.466Zm11.887-2.28c1.962 2.885 4.641 6.838 5.962 8.796 4.075 5.982 5.245 7.727 7.434 10.86l2.075 3.027-19.132.107c-10.49.036-19.17 0-19.245-.071-.189-.178 18.792-27.988 19.094-27.988.113 0 1.85 2.35 3.812 5.27Zm-3.02 25.105c0 .071-.905 1.424-1.962 2.955-1.094 1.567-2.603 3.988-3.32 5.377-.717 1.425-1.51 2.564-1.698 2.564-.227.035-1.17-.712-2.076-1.602-2.377-2.315-8.038-6.588-8.302-6.267-.641.676-2.264 10.397-2.264 13.317 0 .748-.075 1.353-.189 1.353-.113 0-1.056-.392-2.075-.89-1.887-.89-8.34-2.742-11.208-3.205-1.51-.214-1.622-.178-1.622.605 0 .428.453 2.35.98 4.202.567 1.852 1.058 3.704 1.17 4.095.152.677-.037.712-4.15.784l-4.302.07-1.132-1.673c-.642-.926-4.038-5.946-7.623-11.18-3.547-5.235-6.566-9.757-6.68-10.042-.226-.499 2.53-.57 28.114-.57 15.585 0 28.34.071 28.34.107Zm55.095.107c0 .142-3.509 5.412-7.811 11.715l-7.849 11.501-4.415-.071c-2.453 0-4.453-.036-4.453-.071 0-.036.264-.748.566-1.567.83-2.208 2.189-7.834 1.962-8.083-.528-.463-11.094 2.314-13.962 3.703-1.283.606-1.283.677-1.585-4.166-.189-3.454-1.245-8.973-1.85-9.935-.188-.285-.414-.249-.83.072-.301.213-.754.605-1.018.783-.264.214-1.283.961-2.34 1.673-1.019.713-2.566 1.959-3.396 2.742-.792.82-1.623 1.46-1.774 1.46-.15 0-.905-1.14-1.622-2.492-.755-1.389-2-3.561-2.83-4.807-.83-1.282-1.51-2.422-1.51-2.493 0-.107 12.302-.178 27.359-.178 15.056 0 27.358.107 27.358.214Zm-52.038 7.014c.642 1.211 1.283 2.493 1.472 2.813.604.997.453 1.603-.68 2.85-.603.64-1.886 2.35-2.905 3.774l-1.811 2.6-1.547-2.28c-.868-1.21-1.925-2.706-2.416-3.276-.603-.748-.792-1.317-.641-1.958.264-1.033 4.113-7.692 5.019-8.653.528-.57.641-.534 1.472.677.528.676 1.434 2.243 2.037 3.453Zm-14.603 1.603c.83.783 2.113 1.958 2.83 2.67l1.245 1.247-.755 2.279c-1.019 2.99-1.585 5.377-1.585 6.587 0 1.923-.452 1.994-2.717.392-1.17-.855-2.867-1.959-3.849-2.493l-1.736-.997v-2.564c0-2.706.378-5.554 1.133-8.973l.415-1.994 1.736 1.246a56.982 56.982 0 0 1 3.283 2.6Zm27.17-.356c.339 1.709.716 4.7.867 6.587.189 3.17.151 3.454-.49 3.668-.906.32-4.793 2.777-5.623 3.56-.528.535-.68.535-.981.108-.189-.285-.34-.926-.34-1.46 0-1.353-.679-4.345-1.585-7.015-.905-2.6-1.283-1.959 3.66-6.054 1.661-1.388 3.208-2.528 3.435-2.528.264 0 .717 1.353 1.056 3.134Zm-8.83 7.94c.414 1.46.83 3.775.98 5.2l.264 2.563-1.81 1.887c-1.02 1.033-2.152 2.422-2.567 3.098l-.792 1.21-.83-3.31c-.491-1.781-1.133-3.953-1.472-4.772-.604-1.531-.604-1.531.566-3.454 1.962-3.17 4.189-5.769 4.604-5.377.188.178.679 1.531 1.056 2.955Zm-11.246.036c2.83 3.739 2.943 4.166 2.113 6.196-.377.961-1.019 3.098-1.396 4.7l-.642 2.991-2.15-2.706c-1.85-2.315-2.151-2.884-2.151-4.202.037-2.279 1.735-9.187 2.301-9.187.151 0 1.02.997 1.925 2.208Zm-23.472-.178c2.906.783 7.32 2.386 8 2.92.264.213 1.434 6.516 1.245 6.73-.075.071-1.547-.285-3.245-.784-1.736-.462-4.453-1.068-6-1.282-1.547-.213-2.83-.427-2.868-.462-.15-.143-1.924-5.983-2.226-7.3-.302-1.353-.642-1.353 5.094.178Zm58.642 2.1c-1.359 4.915-1.472 5.057-3.51 5.306-1.51.214-6.755 1.39-9.434 2.173-.868.249-.905.213-.641-.962.15-.676.34-2.136.49-3.311.189-1.816.378-2.137 1.397-2.742 1.849-1.069 11.698-3.988 12.34-3.668.15.071-.152 1.531-.642 3.205Zm-46.076 3.277c1.17.748 2.755 1.923 3.585 2.635 1.396 1.21 1.51 1.46 1.736 3.846.15 1.424.226 2.599.15 2.67-.112.107-4.64-2.564-6.49-3.81-.943-.676-2.226-6.694-1.396-6.694.151 0 1.245.605 2.415 1.353Zm31.698-.606c-.037.285-.264 1.639-.49 3.063l-.453 2.564-3.057 1.78c-1.773.997-3.132 1.567-3.207 1.318-.038-.214.037-1.496.189-2.885l.301-2.492 3.02-2.03c2.943-1.994 3.848-2.315 3.697-1.318Zm-15.773 5.698c.943 3.596.868 6.124-.227 8.938-.49 1.317-.98 2.42-1.094 2.42-.453 0-2.264-5.305-2.264-6.622 0-1.603.906-5.911 1.585-7.407.377-.926.49-.961.905-.427.265.356.755 1.745 1.095 3.098Zm-32.453-1.567c.34.32 1.245 1.745 1.962 3.205.717 1.424 2.227 3.81 3.32 5.27 2.265 2.955 2.34 2.742-1.131 3.169-.83.071-2 .25-2.642.392-1.094.213-1.207.07-4.34-4.487-1.773-2.6-3.66-5.377-4.226-6.16-.566-.784-.905-1.567-.83-1.71.113-.142 1.774-.284 3.736-.284 2.792 0 3.66.107 4.15.605Zm70-.142c0 .213-.415.961-.906 1.638-.49.712-2.377 3.418-4.15 6.053-3.284 4.736-3.284 4.736-4.491 4.487-.68-.107-1.887-.32-2.717-.392-.83-.107-1.887-.25-2.34-.356l-.868-.143 1.057-1.103c1.434-1.532 3.207-4.273 4.981-7.727l1.472-2.956 4 .071c2.566.036 3.962.178 3.962.428Zm-64.264.427c3.17.57 7.207 1.816 7.887 2.457.226.214.867 1.424 1.396 2.706.566 1.282 1.698 3.347 2.528 4.63.83 1.246 1.434 2.314 1.396 2.35-.037.07-.754-.072-1.585-.25-.83-.214-3.018-.534-4.905-.783l-3.359-.428-1.736-2.03c-2.98-3.489-6.075-9.186-4.98-9.186.226 0 1.735.249 3.358.534Zm54.226.25c-.415 1.317-2.83 5.305-4.34 7.228-2.528 3.24-2.566 3.276-5.433 3.525-1.434.142-3.246.392-3.963.57-.717.142-1.811.391-2.377.498l-1.057.25 1.095-1.532c1.622-2.279 2.868-4.522 3.66-6.623.68-1.71.868-1.887 2.68-2.528 2.905-1.033 7.094-1.994 9.131-2.137.755-.035.83.072.604.748Zm-20.49 3.702c-.302 1.959-.604 2.564-1.812 3.81-.792.82-1.849 1.959-2.302 2.564l-.867 1.069.15-2.172c.151-1.603.453-2.6 1.246-3.74 1.698-2.492 3.698-4.7 3.849-4.272.075.213-.038 1.424-.264 2.741Zm-13.925.606c1.245 1.78 1.585 2.635 1.774 4.45l.264 2.244-1.774-1.887c-1.736-1.852-2.604-4.024-2.604-6.588 0-1.175.491-.783 2.34 1.78Zm-31.019 2.813c1.774 2.564 3.245 4.807 3.321 4.95.076.177-.34.498-.943.676-4.302 1.531-13.699 6.374-13.699 7.122 0 .391 4.19 2.99 7.397 4.486l2.868 1.389-4.529.107a403.67 403.67 0 0 1-9.207 0l-4.68-.107 7.963-11.644c4.34-6.41 8-11.644 8.113-11.644.113 0 1.623 2.101 3.396 4.665Zm77.132-4.166c.114.285.944 1.638 1.849 2.955.906 1.318 3.057 4.451 4.793 7.015 1.736 2.528 4.377 6.445 5.924 8.617 1.51 2.208 2.755 4.095 2.755 4.202 0 .107-4.113.178-9.132.178l-9.17-.036 2.642-1.317c3.509-1.78 7.736-4.344 7.736-4.7 0-.677-9.02-5.377-12.718-6.588-1.094-.392-2-.819-2-.997 0-.463 6.529-9.863 6.831-9.863.151 0 .339.249.49.534Zm-53.358 1.46c3.094 1.958 4.453 3.276 5.094 5.092.302.89.981 2.421 1.472 3.418.528.961.868 1.816.792 1.887-.075.071-.98-.32-2.037-.89-2.265-1.175-4.68-4.06-6.642-7.87-.717-1.424-1.32-2.67-1.32-2.777 0-.356.716-.071 2.64 1.14Zm27.32.57c-1.924 4.13-4.83 7.798-7.018 8.866-.83.391-1.585.676-1.66.57-.076-.072.226-.855.754-1.71.49-.854 1.208-2.385 1.547-3.347.378-.997 1.057-2.136 1.472-2.6.981-1.032 5.17-3.703 5.434-3.453.113.071-.113.854-.528 1.673Zm-8.679 6.409c-.98 1.78-3.245 4.95-3.434 4.771-.264-.249 1.585-3.596 2.755-5.056 1.208-1.496 1.585-1.353.68.285ZM56.19 73.14c1.585 2.599 1.471 3.347-.151.925-1.17-1.745-1.623-2.848-1.17-2.848.113 0 .68.854 1.32 1.922Zm-16.076.676c2.906 2.315 7.736 4.7 11.208 5.555 2.98.712 3.056 1.104.188 1.104-5.434 0-12.301-1.959-16.679-4.772-4.641-2.955-4.604-2.884-1.962-3.383 3.849-.712 4.68-.534 7.245 1.496Zm3.736-1.389c3.094.57 7.094 1.887 7.094 2.35 0 .178 1.208 1.14 2.642 2.173 1.472 1.032 2.604 1.887 2.528 1.958-.377.356-6.226-1.21-8.755-2.314-2.943-1.318-6.98-3.846-6.98-4.416 0-.356.264-.32 3.471.25Zm35.774-.249c0 .32-5.208 3.632-6.982 4.487-2.075.961-9.245 2.706-9.245 2.243 0-.107.49-.427 1.095-.712.603-.32 2-1.353 3.132-2.315 2.15-1.851 4.83-2.955 8.679-3.56 2.68-.428 3.32-.428 3.32-.143Zm8.226.32c.453.143.83.321.83.463 0 .428-4.377 3.24-6.98 4.487-1.435.677-4 1.567-5.661 1.959-3.698.89-10 1.388-10 .783 0-.25.34-.427.717-.427 1.17 0 6.038-1.745 8.528-3.063 1.245-.64 3.283-1.994 4.528-2.955l2.264-1.816 2.453.178c1.359.107 2.83.285 3.321.392Zm-52 12.962c0 .214-1.924.356-4.717.356-4.641 0-4.755-.036-8.113-1.389-3.472-1.388-8.68-4.202-8.68-4.629 0-.534 7.397-4.237 11.133-5.555l2.264-.819 4.075 5.84c2.227 3.24 4.038 6.018 4.038 6.196Zm63.208-9.294c1.283.57 3.283 1.603 4.49 2.35l2.151 1.318-1.811 1.068c-.981.605-3.585 1.923-5.774 2.92l-3.962 1.816-5.208.107c-4.415.107-5.207.035-4.905-.392.15-.25 2.075-3.062 4.188-6.196l3.925-5.733 2.302.89c1.283.463 3.358 1.318 4.604 1.852Zm-57.66 3.988c3.584 1.175 3.886 1.211 9.66 1.211h6l-1.283.997c-2.755 2.208-8.982 4.522-13.699 5.056-1.81.214-1.924.178-2.679-.961-3.132-4.593-6.943-10.326-6.943-10.433 0-.072 1.17.57 2.641 1.388 1.434.855 4.302 2.101 6.302 2.742Zm45.584-3.347c-.377.499-1.019 1.496-1.434 2.208-.453.712-1.17 1.78-1.66 2.386-.49.605-.868 1.282-.868 1.495 0 .214-.113.427-.264.499-.189.035-.944 1.032-1.736 2.136-1.095 1.638-1.623 2.065-2.378 2.065-1.886 0-6.415-1.175-9.207-2.35-2.943-1.282-6.415-3.276-6.415-3.667 0-.107 2.075-.178 4.641-.107 3.736.107 5.321-.036 7.963-.605 3.471-.784 7.811-2.529 10.264-4.096 1.811-1.139 1.887-1.139 1.094.036Zm-25.736 5.128c3.396 3.026 10.302 6.053 15.17 6.587 1.132.143 2.076.356 2.076.499 0 .249-4.604 7.121-12.453 18.516-2.34 3.418-4.68 6.837-5.17 7.585l-.906 1.388-2.49-3.703a444.953 444.953 0 0 0-5.321-7.762c-1.547-2.244-3.698-5.377-4.793-6.944-1.056-1.567-2.83-4.13-3.886-5.697-1.095-1.532-1.963-2.992-1.963-3.205 0-.178 1.51-.641 3.397-.962 4.905-.925 11.698-4.095 14.113-6.658.415-.392.792-.748.868-.748.075 0 .679.498 1.358 1.104Z" fill="#722086"/></svg>