<svg width="175" height="175" fill="none" xmlns="http://www.w3.org/2000/svg"><path fill-rule="evenodd" clip-rule="evenodd" d="M79.606.077c-12.074 1.456-20.86 3.974-30.589 8.767C25.421 20.47 8.266 42.14 2.376 67.761.713 74.994.37 78.374.37 87.52c0 9.148.343 12.529 2.006 19.762 7.47 32.497 33.065 58.2 65.424 65.702C75.002 174.655 78.37 175 87.477 175c9.398 0 12.81-.37 20.393-2.209 25.344-6.146 46.476-23.155 57.952-46.646 4.091-8.375 6.523-16.118 8.123-25.868.92-5.603.912-19.885-.013-25.51-1.638-9.95-4.079-17.688-8.275-26.228-12.321-25.077-36.353-42.9-64.227-47.636-3.415-.58-6.373-.785-12.522-.868-4.427-.06-8.613-.04-9.302.042Zm15.031 3.756c9.298 2.587 16.343 9.725 19.021 19.272 1.1 3.92 1.1 9.941 0 13.862-2.693 9.599-9.703 16.653-19.225 19.346-3.96 1.12-9.929 1.127-13.857.015-9.58-2.71-16.577-9.722-19.265-19.307-1.122-4.002-1.122-9.968 0-13.971 2.992-10.668 11.47-18.233 22.402-19.989 2.693-.432 7.925-.063 10.924.772ZM66.122 8.927c-5.795 6.002-8.697 13.046-8.697 21.109 0 8.072 2.888 15.071 8.725 21.153 2.81 2.926 2.676 2.998-1.776.953-7.449-3.422-14.448-8.82-19.785-15.261-2.32-2.8-4.697-6.308-4.686-6.915.005-.258 1.092-1.991 2.415-3.852 4.227-5.94 10.647-11.812 16.99-15.537 2.546-1.495 8.356-4.238 9-4.249.18-.003-.803 1.167-2.186 2.6Zm45.528-.439c6.473 3.108 12.828 7.916 17.483 13.229 2.503 2.856 5.927 7.656 5.927 8.307 0 .553-2.473 4.176-4.596 6.734-5.434 6.547-12.43 11.96-19.883 15.384-4.452 2.045-4.587 1.973-1.777-.953 5.838-6.082 8.726-13.08 8.726-21.153 0-8.073-2.888-15.072-8.726-21.153-2.928-3.05-2.74-3.076 2.846-.395Zm-58.373 2.458C38.007 21.752 28.782 39.826 28.81 58.88c.014 9.172 1.813 16.975 5.961 25.856l1.3 2.785-1.3 2.784c-4.148 8.881-5.947 16.685-5.961 25.857-.028 19.032 9.235 37.182 24.467 47.939 1.36.959 2.328 1.745 2.152 1.745-.176 0-2.591-1.128-5.368-2.505-16.604-8.24-29.91-21.604-38.045-38.212-4.244-8.663-6.758-16.771-8.096-26.11-.877-6.123-.877-16.873 0-22.995 3.49-24.367 16.725-45.467 37.085-59.128 3.545-2.378 13.482-7.7 14.379-7.7.2 0-.748.788-2.107 1.75Zm71.612.732c13.391 6.668 24.59 16.552 32.738 28.894 18.895 28.617 18.895 65.283 0 93.9-8.148 12.342-19.347 22.225-32.738 28.893-2.741 1.365-5.141 2.482-5.333 2.482-.192 0 .797-.809 2.198-1.797 4.131-2.914 9.324-7.992 12.555-12.278 7.724-10.247 11.842-22.594 11.842-35.507 0-8.915-1.818-16.984-5.736-25.452l-1.523-3.291 1.523-3.291c3.918-8.468 5.736-16.538 5.736-25.452 0-18.989-9.263-37.096-24.474-47.837-1.359-.96-2.313-1.745-2.121-1.745.192 0 2.592 1.117 5.333 2.482ZM39.886 35.706c.88 1.327 3.698 4.52 6.26 7.093 5.139 5.16 9.447 8.31 15.48 11.315 3.427 1.707 10.474 4.305 11.676 4.305 1.345 0 .411.604-1.835 1.185-6.25 1.618-14.854 6.056-20.438 10.543-3.556 2.858-9.126 8.727-11.17 11.772-.866 1.29-1.674 2.352-1.795 2.358-.345.018-2.436-4.874-3.564-8.34-1.884-5.788-2.613-10.572-2.613-17.158 0-6.587.729-11.37 2.613-17.158 1.128-3.467 3.219-8.358 3.564-8.34.121.006.94 1.097 1.822 2.425Zm98.386.168c3.314 7.44 4.796 14.517 4.796 22.905 0 6.586-.729 11.37-2.613 17.158-1.129 3.466-3.219 8.358-3.564 8.34-.121-.006-.941-1.098-1.822-2.425-.88-1.328-3.698-4.527-6.261-7.11-5.095-5.135-9.725-8.506-15.688-11.424-3.469-1.698-10.219-4.18-11.367-4.18-.374 0-.68-.162-.68-.36 0-.197.261-.359.58-.359 1.202 0 8.249-2.598 11.675-4.305 6.033-3.005 10.342-6.154 15.48-11.315 2.563-2.574 5.381-5.766 6.261-7.093.881-1.328 1.701-2.42 1.822-2.425.121-.007.743 1.16 1.381 2.593ZM94.637 61.32c9.298 2.587 16.343 9.725 19.021 19.272 1.107 3.945 1.101 9.939-.015 13.916-2.681 9.563-9.705 16.602-19.264 19.307-3.904 1.105-9.9 1.105-13.803 0-9.58-2.711-16.577-9.722-19.265-19.306-1.122-4.003-1.122-9.969 0-13.972 2.992-10.668 11.47-18.233 22.402-19.989 2.693-.432 7.925-.063 10.924.772Zm-28.515 5.095c-5.795 6.001-8.697 13.045-8.697 21.108 0 8.078 2.9 15.104 8.725 21.138l2.545 2.635-1.867-.739c-7.016-2.777-12.936-6.761-18.706-12.588-4.072-4.111-8.228-9.388-8.228-10.446 0-.64 3.285-5.25 5.807-8.147 5.134-5.901 11.647-10.73 18.88-13.995 1.869-.844 3.546-1.543 3.727-1.553.18-.01-.803 1.154-2.186 2.587Zm43.475-1.353c7.15 3.157 12.546 6.97 18.129 12.811 3.393 3.55 7.334 8.736 7.334 9.65 0 1.074-4.155 6.35-8.218 10.433-4.834 4.859-8.828 7.826-14.142 10.507-3.139 1.584-5.792 2.773-6.186 2.773-.108 0 .936-1.172 2.319-2.605 5.795-6.002 8.697-13.045 8.697-21.108s-2.902-15.107-8.697-21.108c-1.383-1.433-2.415-2.605-2.293-2.605.122 0 1.498.563 3.057 1.252ZM39.859 93.125c2.044 3.044 7.614 8.914 11.17 11.771 5.584 4.487 14.188 8.925 20.438 10.544 1.329.343 2.415.715 2.415.825 0 .11-1.086.481-2.415.825-5.542 1.435-12.142 4.639-18.156 8.816-3.542 2.459-11.265 10.188-13.422 13.432-.882 1.327-1.704 2.419-1.825 2.425-.345.018-2.436-4.873-3.564-8.34-1.884-5.788-2.613-10.572-2.613-17.158 0-6.587.729-11.37 2.613-17.158 1.128-3.467 3.219-8.358 3.564-8.34.121.006.93 1.067 1.795 2.358Zm98.413.235c3.314 7.439 4.796 14.518 4.796 22.905 0 6.586-.729 11.37-2.613 17.158-1.129 3.467-3.219 8.358-3.564 8.34-.121-.006-.941-1.098-1.822-2.425-2.472-3.727-10.266-11.336-14.551-14.205-4.676-3.131-9.752-5.648-14.651-7.264a501.338 501.338 0 0 1-4.437-1.477c-.295-.105.812-.585 2.461-1.068 6.2-1.814 11.809-4.562 17.753-8.696 3.546-2.467 11.267-10.197 13.421-13.436.883-1.327 1.705-2.419 1.826-2.425.121-.007.743 1.16 1.381 2.593Zm-43.635 25.445c9.298 2.588 16.343 9.726 19.021 19.272 1.107 3.945 1.101 9.939-.015 13.917-2.681 9.562-9.705 16.602-19.264 19.306-3.904 1.105-9.9 1.105-13.803 0-9.58-2.71-16.577-9.722-19.265-19.306-1.122-4.003-1.122-9.969 0-13.972 2.992-10.668 11.47-18.232 22.402-19.988 2.693-.433 7.925-.064 10.924.771ZM66.122 123.9c-5.795 6.002-8.697 13.045-8.697 21.108s2.902 15.106 8.697 21.108c1.383 1.433 2.415 2.605 2.293 2.605-.121 0-1.678-.634-3.46-1.41-8.369-3.646-16.38-10.029-21.964-17.5-3.131-4.19-3.328-4.595-2.76-5.663.974-1.827 4.774-6.609 7.414-9.329 3.45-3.556 7.024-6.422 11.053-8.866 2.89-1.753 8.852-4.64 9.61-4.653.18-.003-.803 1.167-2.186 2.6Zm45.528-.439c6.535 3.137 12.686 7.817 17.545 13.347 2.526 2.875 5.865 7.537 5.865 8.189 0 .225-.626 1.331-1.391 2.456-4.501 6.621-10.731 12.533-17.664 16.76-2.378 1.449-8.8 4.508-9.465 4.508-.122 0 .91-1.172 2.293-2.605 5.795-6.002 8.697-13.045 8.697-21.108 0-8.072-2.888-15.072-8.726-21.153-2.928-3.05-2.74-3.076 2.846-.394Z" fill="url(#a)"/><defs><linearGradient id="a" x1="34.886" y1="13.868" x2="152.437" y2="147.388" gradientUnits="userSpaceOnUse"><stop stop-color="#B381E0"/><stop offset="1" stop-color="#5FABD9"/></linearGradient></defs></svg>