<svg width="195" height="142" fill="none" xmlns="http://www.w3.org/2000/svg"><path fill-rule="evenodd" clip-rule="evenodd" d="M96.38.303c-.61.406-6.476 8.37-9.582 13.006-3.322 4.96-7.081 11.256-10.09 16.903l-2.302 4.321-3.705-2.328c-6.625-4.164-11.975-7.123-19.37-10.713-13.167-6.393-13.188-6.395-13.89-1.47-1.166 8.187-1.392 12.35-1.392 25.674v13.961l-2.102.006C22.366 59.698 1.463 61.155.44 62c-.977.805-.335 2.686 3.652 10.71 4.945 9.953 10.956 19.845 16.97 27.924 1.447 1.944 1.788 1.518-3.9 4.866-4.566 2.687-10.39 6.819-14.127 10.02-2.299 1.969-2.926 2.731-3.018 3.668-.11 1.116.181 1.406 5.158 5.127 2.901 2.169 6.908 4.949 8.904 6.177 8.142 5.009 18.19 9.122 26.172 10.715 4.89.976 16.278.97 20.823-.01 11.593-2.501 22.419-8.3 32.054-17.169 1.234-1.137 2.373-2.066 2.531-2.066.158 0 1.768 1.093 3.579 2.429 5.518 4.072 10.28 6.986 16.256 9.946 12.046 5.967 23.623 8.46 34.558 7.441 14.907-1.388 27.929-7.48 41.787-19.548 3.567-3.107 3.527-3.502-.721-7.134-4.733-4.047-9.653-7.582-14.362-10.318-2.254-1.31-4.036-2.558-3.96-2.774.076-.216 1.706-2.587 3.622-5.268 6.176-8.642 10.677-16.231 15.541-26.204 3.479-7.133 3.734-8.287 1.97-8.933-1.878-.69-21.046-1.922-30.077-1.934l-5.158-.008V44.936c0-11.877-.138-15.933-.713-20.99-.744-6.54-1.119-7.6-2.69-7.596-1.058.001-10.418 4.205-16.758 7.525-5.6 2.933-9.28 5.058-14.691 8.481-1.987 1.258-3.664 2.231-3.726 2.163-.062-.07-.734-1.359-1.493-2.866-3.532-7.016-10.341-18.009-16.069-25.942C98.587.216 97.689-.57 96.38.303Zm1.616 5.693c.284.366 2.555 3.656 5.045 7.313 9.506 13.956 15.231 24.84 19.199 36.499 2.742 8.056 3.777 13.349 4.051 20.702.396 10.688-1.471 18.833-6.288 27.426l-1.758 3.138-3.655 1.941c-2.01 1.068-5.289 3.02-7.285 4.338-3.108 2.052-4.901 3.417-10.883 8.283-.863.702-.87.699-4.447-2.29-1.97-1.647-5.255-4.153-7.298-5.569-4.329-2.999-7.481-6.629-10.545-12.143-12.02-21.625-5.346-50.813 19.541-85.46 1.914-2.664 3.553-4.843 3.642-4.843.09 0 .396.299.68.665ZM49.039 24.833c3.993 1.95 8.72 4.367 10.507 5.374 3.541 1.995 12.99 7.802 12.99 7.983 0 .062-.5 1.285-1.11 2.717-7.365 17.263-9.008 34.263-4.608 47.66 1.19 3.624 2.756 7.108 4.549 10.126.652 1.096 1.1 1.994.996 1.994-.104 0-1.522-.527-3.152-1.17-4.2-1.66-9.157-2.91-13.639-3.443-2.122-.252-4.079-.625-4.348-.828-.268-.203-1.5-2.38-2.738-4.838-3.946-7.839-6.443-16.964-7.895-28.851-1.268-10.379-.703-40.273.76-40.269.236 0 3.695 1.596 7.688 3.545Zm105.008-1.172c1.235 12.485 1.26 29.12.06 39.035-1.434 11.849-4.48 22.228-8.662 29.51l-1.566 2.727-2.908.244c-4.382.367-9.702 1.295-13.163 2.296-1.702.492-3.15.84-3.216.774-.067-.066.466-1.467 1.184-3.114 2.667-6.116 3.879-10.992 4.443-17.877.834-10.175-1.678-23.345-6.721-35.234-.711-1.676-1.292-3.234-1.292-3.462 0-.468 5.732-4.175 12.035-7.783 4.511-2.581 18.444-9.487 19.147-9.489.241 0 .526 1.023.659 2.373ZM37.252 67.065c1.091 8.044 3.654 16.569 7.241 24.09 1.137 2.385 2.008 4.395 1.935 4.467-.073.073-1.58.306-3.346.52-4.156.499-10.495 2.059-14.016 3.448-1.53.604-2.844 1.097-2.923 1.097-.078 0-1.257-1.496-2.62-3.324C17.854 89.759 11.21 78.817 6.97 70.105l-2.403-4.94.932-.25c.512-.139 4.071-.444 7.908-.678 10.133-.62 10.971-.649 17.47-.618l5.91.027.464 3.42Zm148.178-2.474c2.517.238 4.634.488 4.704.558.195.194-4.676 9.737-7.472 14.643-4.177 7.326-13.107 20.515-13.891 20.515-.173 0-1.625-.518-3.228-1.15-3.759-1.485-9.356-2.925-13.609-3.501-1.851-.25-3.365-.578-3.365-.728 0-.15.858-2.017 1.907-4.15 3.289-6.687 6.387-17.33 7.112-24.428l.267-2.616 11.499.213c6.325.118 13.559.408 16.076.644Zm-31.894 35.15c8.021 1.558 17.112 5.46 25.05 10.754 4.178 2.785 10.561 7.749 10.754 8.362.126.402-6.044 5.306-10.359 8.233-7.536 5.114-15.02 8.372-23.287 10.138-5.58 1.192-15.2 1.181-20.88-.023-10.949-2.32-22.111-7.623-33.038-15.693-1.787-1.32-3.244-2.485-3.24-2.59.022-.454 6.901-5.768 11.141-8.606 9.278-6.211 18.341-9.819 28.385-11.298 2.374-.35 12.352.117 15.474.723Zm-94.563 1.006c10.81 2.12 21.17 7.611 32.242 17.092l1.618 1.387-3.366 2.913c-6.314 5.465-14.654 10.472-21.515 12.915-16.248 5.785-33.936 3.103-51.74-7.844-4.433-2.725-11.295-7.652-11.28-8.098.016-.528 5.054-4.362 10.294-7.834 9.432-6.25 19.477-10.262 28.341-11.32 3.873-.462 10.848-.105 15.406.789Z" fill="url(#a)" fill-opacity=".8"/><defs><linearGradient id="a" x1="29.802" y1="11.799" x2="194.238" y2="127.599" gradientUnits="userSpaceOnUse"><stop stop-color="#B381E0"/><stop offset="1" stop-color="#5FABD9"/></linearGradient></defs></svg>