<svg width="62" height="62" fill="none" xmlns="http://www.w3.org/2000/svg"><rect x=".024" y=".536" width="61.463" height="61.463" rx="30.732" fill="#48C95F"/><path d="M42.936 19.071a16.024 16.024 0 0 0-11.355-4.706c-8.883 0-16.078 7.171-16.078 16.022 0 2.801.787 5.602 2.136 7.955l-2.249 8.291 8.545-2.24c2.361 1.232 4.947 1.904 7.646 1.904 8.882 0 16.077-7.17 16.077-16.022-.112-4.145-1.686-8.179-4.722-11.204Zm-3.598 17.03c-.337.897-1.911 1.793-2.698 1.905a6.303 6.303 0 0 1-2.474-.112c-.562-.224-1.349-.448-2.248-.896-4.048-1.68-6.634-5.714-6.859-6.05-.225-.224-1.686-2.13-1.686-4.146 0-2.017 1.012-2.913 1.35-3.361.336-.448.786-.448 1.123-.448h.787c.225 0 .563-.112.9.672.337.784 1.124 2.8 1.237 2.913a.712.712 0 0 1 0 .672c-.113.224-.225.448-.45.672-.225.224-.45.56-.562.673-.225.224-.45.448-.225.784.225.448 1.012 1.68 2.249 2.801 1.574 1.345 2.81 1.793 3.26 2.017.45.224.675.112.9-.112.224-.224 1.011-1.12 1.236-1.569.225-.448.563-.336.9-.224.337.112 2.36 1.12 2.698 1.345.45.224.675.336.787.448.113.336.113 1.12-.225 2.017Z" fill="#fff"/></svg>