<svg width="51" height="51" fill="none" xmlns="http://www.w3.org/2000/svg"><path d="M24.809 0h1.394C39.828.463 50.533 11.204 51 24.809v1.344C50.576 39.892 39.72 50.556 26.092 51h-1.12c-4.567-.128-8.755-1.333-12.565-3.615-.62-.371-.419-1.352.327-1.387.158-.008.369.065.632.218 3.307 1.918 6.878 3 10.713 3.247a.03.03 0 0 0 .026-.047c-4.228-6.328-10.99-10.232-18.6-10.757a.045.045 0 0 0-.05.047.05.05 0 0 0 .009.024 24.691 24.691 0 0 0 4.894 5.397c.778.638-.097 1.844-1 1.105C3.521 40.454.32 33.714 0 26.192v-1.37C.482 11.232 11.132.445 24.809 0ZM5.483 12.338c7.53-.495 14.479-4.434 18.625-10.77a.029.029 0 0 0 .006-.015.028.028 0 0 0-.016-.026.028.028 0 0 0-.015-.003c-7.67.562-14.362 4.398-18.621 10.774a.027.027 0 0 0-.002.027.025.025 0 0 0 .024.013ZM33.52 8.266c.546.37.204 1.353-.484 1.313-.185-.01-.404-.104-.656-.28a26.142 26.142 0 0 1-3.75-3.176.026.026 0 0 0-.043.026c1.3 4.648 1.301 9.295.005 13.943a.03.03 0 0 0 .033.039.03.03 0 0 0 .018-.01c3.362-3.444 7.38-5.765 12.056-6.963a.036.036 0 0 0 0-.07 24.796 24.796 0 0 1-4.736-1.71c-.257-.123-.428-.242-.514-.355-.317-.419.003-1.105.523-1.158.156-.016.354.034.593.149a24.035 24.035 0 0 0 8.934 2.32.032.032 0 0 0 .017-.003.032.032 0 0 0 .013-.013.032.032 0 0 0-.002-.034c-4.222-6.343-11-10.237-18.602-10.753a.03.03 0 0 0-.028.015.033.033 0 0 0 0 .034 23.867 23.867 0 0 0 6.623 6.686ZM25.57 23.82c3.296-6.804 3.313-14.664-.042-21.443a.034.034 0 0 0-.049-.013.034.034 0 0 0-.012.014c-3.359 6.787-3.343 14.692-.002 21.485a.029.029 0 0 0 .015.015.03.03 0 0 0 .021 0 .109.109 0 0 0 .069-.058Zm-3.24-3.744a.107.107 0 0 0 .041.066c.005.004.01.006.016.006a.027.027 0 0 0 .027-.034c-1.305-4.66-1.304-9.321.003-13.982a.027.027 0 0 0-.03-.033.027.027 0 0 0-.015.007c-3.371 3.445-7.397 5.773-12.076 6.984a.036.036 0 0 0-.026.034.036.036 0 0 0 .026.034 25.98 25.98 0 0 1 4.328 1.515c1.068.484.489 1.806-.61 1.347-2.772-1.16-5.483-1.908-8.486-2.1a.057.057 0 0 0-.051.027.054.054 0 0 0 .002.058C9.725 20.286 16.507 24.22 24.077 24.71a.032.032 0 0 0 .029-.015.032.032 0 0 0 0-.033 24.14 24.14 0 0 0-6.94-6.91c-.9-.59-.116-1.844.828-1.234a25.069 25.069 0 0 1 4.336 3.558Zm23.183-6.173c-7.537.533-14.427 4.411-18.598 10.735a.048.048 0 0 0 0 .05.048.048 0 0 0 .043.024c7.591-.536 14.364-4.442 18.587-10.752a.038.038 0 0 0 .002-.039.035.035 0 0 0-.034-.018Zm-41.467.843c-3.403 6.763-3.379 14.73-.02 21.49a.039.039 0 0 0 .034.023.039.039 0 0 0 .035-.022c3.372-6.83 3.353-14.652-.009-21.49a.022.022 0 0 0-.008-.01.022.022 0 0 0-.024 0 .022.022 0 0 0-.008.01Zm42.846.026c-3.34 6.845-3.357 14.634.007 21.462a.04.04 0 0 0 .035.021.04.04 0 0 0 .036-.021c3.353-6.774 3.382-14.686 0-21.463a.043.043 0 0 0-.062-.017.043.043 0 0 0-.016.018ZM19.221 25.46c-4.67-1.211-8.683-3.54-12.04-6.985-.037-.038-.05-.031-.04.02.047.247.148.55.192.728 1.104 4.43 1.042 8.844-.184 13.239a.037.037 0 0 0 .04.046.037.037 0 0 0 .022-.01c3.296-3.373 7.222-5.673 11.78-6.9.067-.017.23-.011.26-.058.027-.04.017-.067-.03-.08Zm12.793.14c4.556 1.227 8.482 3.526 11.778 6.9a.034.034 0 0 0 .056-.011.034.034 0 0 0 .001-.022c-1.29-4.647-1.29-9.293.001-13.94.02-.075.004-.085-.05-.03-3.383 3.374-7.241 5.7-11.895 6.933a.692.692 0 0 1-.139.025c-.045.002-.056.023-.032.062.048.082.199.062.28.084Zm-7.937.694C16.56 26.765 9.57 30.75 5.45 37.063a.024.024 0 0 0 0 .024.021.021 0 0 0 .02.01c7.6-.536 14.401-4.417 18.635-10.756a.032.032 0 0 0 .005-.016.032.032 0 0 0-.005-.017.031.031 0 0 0-.029-.015Zm2.831.066a24.192 24.192 0 0 0 6.381 6.516c.627.434.256 1.47-.516 1.349-.145-.023-.327-.111-.544-.266a25.78 25.78 0 0 1-3.596-3.075.023.023 0 0 0-.03-.005.026.026 0 0 0-.011.029c1.297 4.655 1.293 9.308-.011 13.96a.028.028 0 0 0 .013.032.028.028 0 0 0 .034-.005c3.296-3.376 7.235-5.681 11.815-6.916.096-.026.193-.045.292-.059a.035.035 0 0 0 .032-.034.035.035 0 0 0-.028-.036 25.775 25.775 0 0 1-5.15-1.895c-.93-.46-.314-1.802.709-1.305a24.781 24.781 0 0 0 9.206 2.441c.007.001.014 0 .02-.004a.038.038 0 0 0 .016-.015.038.038 0 0 0-.002-.041 24.262 24.262 0 0 0-18.494-10.744c-.06-.005-.103.005-.13.03a.034.034 0 0 0-.01.02.03.03 0 0 0 .005.023Zm-1.393.767a.024.024 0 0 0-.022-.013.024.024 0 0 0-.02.014c-3.347 6.815-3.369 14.671-.008 21.484a.037.037 0 0 0 .067 0c3.34-6.756 3.37-14.729-.017-21.485ZM22.349 44.87a.037.037 0 0 0 .044.007.037.037 0 0 0 .016-.018.035.035 0 0 0 .001-.024c-1.297-4.642-1.297-9.285 0-13.93.016-.059.002-.067-.042-.023-3.441 3.399-7.317 5.738-12.034 6.956a.042.042 0 0 0 0 .08c4.653 1.212 8.658 3.529 12.015 6.952Zm23.142-6.21c-7.56.551-14.409 4.39-18.598 10.772a.02.02 0 0 0 .02.033c7.59-.477 14.394-4.433 18.613-10.743a.04.04 0 0 0-.035-.062Z" fill="url(#a)"/><defs><linearGradient id="a" x1="25.5" y1="0" x2="25.5" y2="51" gradientUnits="userSpaceOnUse"><stop stop-color="#B381E0"/><stop offset="1" stop-color="#5FABD9"/></linearGradient></defs></svg>