<svg width="55" height="55" fill="none" xmlns="http://www.w3.org/2000/svg"><g clip-path="url(#a)"><path d="M27.426 0h.188c.1.026.198.056.295.09.833.276.847 1.46.168 1.893-.473.302-1.204.146-1.482-.345-.409-.72.002-1.49.831-1.638Z" fill="url(#b)"/><path d="M33.789 13.353c1.68.58 3.368 1.163 5.065 1.747.887.305.936 1.533.13 1.968-.024.014-.289.108-.792.283-1.456.507-2.913 1.01-4.372 1.507a.09.09 0 0 0-.05.045.088.088 0 0 0-.004.068 370.73 370.73 0 0 1 1.05 3.005c.337.98-.393 1.812-1.407 1.461-1.009-.348-2.02-.702-3.035-1.063-.063-.022-.105-.002-.127.06a813.081 813.081 0 0 1-1.637 4.751c-.114.328-.229.552-.344.673-.37.389-1.068.409-1.47.053-.134-.12-.254-.33-.36-.63-.56-1.6-1.117-3.217-1.67-4.851a.095.095 0 0 0-.085-.065.093.093 0 0 0-.037.006c-1.06.378-2.123.75-3.193 1.118-.565.194-1.287-.262-1.354-.868-.021-.185.03-.452.151-.802.318-.914.648-1.855.988-2.821a.117.117 0 0 0-.033-.128.12.12 0 0 0-.04-.024c-1.695-.58-3.403-1.169-5.125-1.767a.79.79 0 0 1-.398-.338c-.43-.666-.125-1.403.594-1.656 1.63-.573 3.277-1.142 4.94-1.707a.108.108 0 0 0 .064-.056.11.11 0 0 0 .005-.085 176.44 176.44 0 0 1-1.076-3.08c-.23-.677.144-1.344.845-1.432.21-.027.481.019.814.136l2.835.997a.074.074 0 0 0 .095-.045 1221.59 1221.59 0 0 1 1.737-5.024c.306-.878 1.473-.99 1.935-.21.035.059.15.37.345.935l1.487 4.313c.013.037.038.05.076.037.984-.344 1.963-.686 2.936-1.029 1.122-.393 1.916.336 1.522 1.477-.34.988-.688 1.977-1.04 2.966a.06.06 0 0 0 .002.045.057.057 0 0 0 .033.03Zm-8.832-1.135a23.478 23.478 0 0 1-1.97-.69.043.043 0 0 0-.047.01.042.042 0 0 0-.012.02.042.042 0 0 0 .001.025c.24.67.848 1.974.761 2.597-.059.418-.33.71-.817.878-.984.34-1.963.677-2.935 1.01a.048.048 0 0 0-.025.018.048.048 0 0 0 0 .057.048.048 0 0 0 .025.018c.997.336 1.987.677 2.971 1.022.861.303.907.94.633 1.727a275.41 275.41 0 0 1-.606 1.714.047.047 0 0 0 .06.06l1.719-.61c1.08-.381 1.482-.058 1.846.994l.91 2.634a.039.039 0 0 0 .037.026.041.041 0 0 0 .038-.027c.27-.808.547-1.614.83-2.419.34-.966.585-1.668 1.832-1.237.609.21 1.214.423 1.814.637a.041.041 0 0 0 .052-.053c-.222-.62-.44-1.241-.65-1.861-.338-.989.07-1.37.99-1.692.891-.313 1.787-.621 2.687-.924a.041.041 0 0 0 .03-.04.043.043 0 0 0-.03-.04c-1.02-.339-2.042-.689-3.064-1.051-.795-.282-.825-.954-.576-1.68.203-.592.414-1.185.632-1.778a.028.028 0 0 0-.007-.029.028.028 0 0 0-.029-.007 91.07 91.07 0 0 1-1.779.631c-1.047.359-1.454.07-1.815-.96-.315-.9-.624-1.803-.93-2.71a.03.03 0 0 0-.029-.02.032.032 0 0 0-.03.021 124.42 124.42 0 0 1-.861 2.518c-.3.85-.536 1.549-1.655 1.211Z" fill="url(#c)"/><path d="m19.17 6.27-1.283-1.284c-.4-.4-1.05-.4-1.45 0l-.062.063c-.4.4-.4 1.049 0 1.449l1.284 1.284c.4.4 1.049.4 1.45 0l.061-.063c.4-.4.4-1.049 0-1.449Z" fill="url(#d)"/><path d="m38.628 5.049-.063-.063c-.4-.4-1.049-.4-1.449 0L35.833 6.27c-.4.4-.4 1.05 0 1.45l.062.062c.4.4 1.049.4 1.45 0l1.283-1.284c.4-.4.4-1.05 0-1.45Z" fill="url(#e)"/><path d="M42.544 17.18a1.067 1.067 0 1 0 0-2.134 1.067 1.067 0 0 0 0 2.134Z" fill="url(#f)"/><path d="M12.466 17.179a1.067 1.067 0 1 0 0-2.134 1.067 1.067 0 0 0 0 2.134Z" fill="url(#g)"/><path d="M55 20.282v.296c-.045.406-.115.72-.21.94-1.994 4.675-3.92 9.387-6.01 14.02-1.029 2.282-2.164 4.236-4.01 5.957a360.983 360.983 0 0 1-4.89 4.476c-.12.108-.134.22-.1.368a.095.095 0 0 0 .1.073c.706-.05 1.584.14 1.585 1.015l-.001 6.177c-.001.761-.191 1.26-.972 1.396H14.496c-.636-.147-.954-.55-.956-1.208-.004-1.986-.005-3.97-.004-5.955.001-1.255.508-1.408 1.63-1.432a.067.067 0 0 0 .067-.047c.056-.146.04-.259-.049-.338a376.538 376.538 0 0 1-3.451-3.143c-1.445-1.333-2.296-2.1-3.26-3.341-.775-.998-1.411-2.213-1.945-3.366-2.192-4.732-4.21-9.746-6.295-14.625C.1 21.23.052 20.919 0 20.592v-.376c.097-.888.453-1.576 1.069-2.066 1.636-1.3 3.564-.711 4.629 1.014 1.428 2.315 2.852 4.632 4.272 6.952.02.032.045.04.078.024 1.102-.506 2.1-.46 2.992.138.277.186.622.537 1.034 1.052a787.44 787.44 0 0 0 3.93 4.878c.967 1.19 1.88 2.06 3.037 2.908 2.462 1.806 4.945 3.462 6.426 6.246a.047.047 0 0 0 .042.025.047.047 0 0 0 .042-.026c1.832-3.554 5.35-5.088 8.128-7.682.397-.371.874-.902 1.433-1.594 1.154-1.428 2.305-2.858 3.453-4.29.663-.828 1.143-1.342 1.44-1.542.86-.58 1.853-.614 2.978-.102.01.004.02.005.03.002a.042.042 0 0 0 .024-.018c1.427-2.344 2.857-4.684 4.289-7.021 1.604-2.616 5.442-2.007 5.674 1.168ZM3.768 20.13c-.626-1.015-1.98-.42-1.49.728 2.035 4.778 3.99 9.598 6.166 14.315.973 2.107 1.895 3.52 3.58 5.066a850.77 850.77 0 0 0 4.651 4.238c.713.645.775.931.712 1.883a.045.045 0 0 0 .012.033c.004.005.01.008.015.01a.043.043 0 0 0 .017.004h8.96a.043.043 0 0 0 .03-.012.043.043 0 0 0 .012-.03c.087-3.065-1.34-5.443-3.684-7.292-1.457-1.15-3.593-2.525-5.138-4.057-.374-.37-.845-.909-1.414-1.616l-4.083-5.074c-.318-.394-.956-.595-1.262-.065-.504.869 2.675 6.643 3.312 7.724.826 1.4-1.083 2.346-1.723 1.286a44.153 44.153 0 0 1-2.96-5.83c-.565-1.352-.909-2.093-.846-3.328a.176.176 0 0 0-.026-.1 1868.57 1868.57 0 0 0-4.84-7.883Zm38.519 17.397c-.912.663-2.07-.425-1.477-1.463 1.185-2.078 2.23-4.16 3.132-6.362.229-.556.614-1.516-.226-1.742-.466-.127-.691.21-1.016.613a2018.75 2018.75 0 0 0-4.1 5.112c-1.517 1.899-3.465 3.247-5.401 4.673-2.796 2.06-4.735 4.358-4.625 7.997a.05.05 0 0 0 .017.037c.01.01.024.015.038.015h8.921c.05 0 .075-.025.075-.075-.006-.653-.087-1.15.446-1.627a324.464 324.464 0 0 0 4.868-4.438c1.785-1.66 2.798-3.194 3.831-5.48 2.066-4.57 3.95-9.223 5.927-13.83.541-1.259-.82-1.867-1.469-.824-.886 1.427-2.501 4.07-4.846 7.927a.152.152 0 0 0-.023.097c.057.62.002 1.16-.166 1.624-.828 2.278-1.926 4.593-3.293 6.942-.24.413-.444.68-.613.804ZM26.426 48.618a.064.064 0 0 0-.064-.063H15.747a.064.064 0 0 0-.063.063v4.17a.063.063 0 0 0 .063.064h10.615a.063.063 0 0 0 .064-.064v-4.17Zm12.89 0a.064.064 0 0 0-.063-.063H28.638a.064.064 0 0 0-.064.063v4.17a.063.063 0 0 0 .064.064h10.615a.063.063 0 0 0 .063-.064v-4.17Z" fill="url(#h)"/><path d="m17.66 24.444-1.285 1.284c-.4.4-.4 1.049 0 1.449l.063.062c.4.4 1.049.4 1.45 0l1.283-1.284c.4-.4.4-1.049 0-1.449l-.063-.062c-.4-.4-1.049-.4-1.449 0Z" fill="url(#i)"/><path d="m38.633 25.735-1.293-1.29a1.025 1.025 0 0 0-1.448.003l-.06.061c-.4.4-.398 1.049.002 1.448l1.293 1.289c.401.4 1.05.398 1.448-.002l.061-.061c.4-.4.398-1.05-.003-1.448Z" fill="url(#j)"/><path d="M27.504 32.218a1.067 1.067 0 1 0 0-2.134 1.067 1.067 0 0 0 0 2.134Z" fill="url(#k)"/></g><defs><linearGradient id="b" x1="27.498" y1="0" x2="27.498" y2="2.137" gradientUnits="userSpaceOnUse"><stop stop-color="#B381E0"/><stop offset="1" stop-color="#5FABD9"/></linearGradient><linearGradient id="c" x1="27.499" y1="4.056" x2="27.499" y2="28.164" gradientUnits="userSpaceOnUse"><stop stop-color="#B381E0"/><stop offset="1" stop-color="#5FABD9"/></linearGradient><linearGradient id="d" x1="18.529" y1="5.628" x2="17.017" y2="7.14" gradientUnits="userSpaceOnUse"><stop stop-color="#B381E0"/><stop offset="1" stop-color="#5FABD9"/></linearGradient><linearGradient id="e" x1="38.597" y1="5.018" x2="35.864" y2="7.75" gradientUnits="userSpaceOnUse"><stop stop-color="#B381E0"/><stop offset="1" stop-color="#5FABD9"/></linearGradient><linearGradient id="f" x1="42.544" y1="15.046" x2="42.544" y2="17.18" gradientUnits="userSpaceOnUse"><stop stop-color="#B381E0"/><stop offset="1" stop-color="#5FABD9"/></linearGradient><linearGradient id="g" x1="12.466" y1="15.045" x2="12.466" y2="17.179" gradientUnits="userSpaceOnUse"><stop stop-color="#B381E0"/><stop offset="1" stop-color="#5FABD9"/></linearGradient><linearGradient id="h" x1="27.5" y1="17.444" x2="27.5" y2="55" gradientUnits="userSpaceOnUse"><stop stop-color="#B381E0"/><stop offset="1" stop-color="#5FABD9"/></linearGradient><linearGradient id="i" x1="17.017" y1="25.086" x2="18.529" y2="26.597" gradientUnits="userSpaceOnUse"><stop stop-color="#B381E0"/><stop offset="1" stop-color="#5FABD9"/></linearGradient><linearGradient id="j" x1="37.987" y1="25.09" x2="36.481" y2="26.602" gradientUnits="userSpaceOnUse"><stop stop-color="#B381E0"/><stop offset="1" stop-color="#5FABD9"/></linearGradient><linearGradient id="k" x1="27.504" y1="30.084" x2="27.504" y2="32.218" gradientUnits="userSpaceOnUse"><stop stop-color="#B381E0"/><stop offset="1" stop-color="#5FABD9"/></linearGradient><clipPath id="a"><path fill="#fff" d="M0 0h55v55H0z"/></clipPath></defs></svg>