<svg width="53" height="53" fill="none" xmlns="http://www.w3.org/2000/svg"><path d="M6.619 16.064c2.246-4.667 6.025-8.585 10.694-10.943 4.893-2.471 10.12-3.196 15.681-2.173.551.102.946.472.808 1.056-.104.438-.433.566-.874.675-10.25 2.526-16.396 13.053-13.377 23.21 2.476 8.329 10.452 13.872 19.163 13.166 3.114-.252 6.04-1.256 8.779-3.01.777-.498 1.573.465 1.06 1.267-6.718 10.5-20.364 14.33-31.48 8.44C5.609 41.676 1.01 27.717 6.62 16.064Zm5.006-4.491C.688 23.767 6.202 43.166 21.797 47.877c8.477 2.562 17.338-.013 23.211-6.595.043-.048.035-.059-.023-.034-5.94 2.529-13.022 1.927-18.462-1.541-13.619-8.68-12.19-28.928 2.617-35.5a.029.029 0 0 0-.01-.056c-6.685-.198-13.039 2.443-17.505 7.422Z" fill="url(#a)"/><path d="M16.129 10.771c.706-.543 1.648.244 1.23 1.05-2.561 4.941-3.3 10.094-2.218 15.456 1.683 8.33 8.119 14.956 16.23 17.211.33.092.62.306.685.626.129.64-.3.96-.897 1.044-9.901 1.402-19.275-4.596-22.022-14.256-2.225-7.831.622-16.225 6.992-21.131Zm-1.953 4.177c-9.302 11.547-1.94 28.538 12.783 29.72a.023.023 0 0 0 .02-.031.022.022 0 0 0-.01-.011 24.352 24.352 0 0 1-12.746-29.653.027.027 0 0 0-.047-.025Z" fill="url(#b)"/><defs><linearGradient id="a" x1="26.474" y1="2.499" x2="26.474" y2="50.52" gradientUnits="userSpaceOnUse"><stop stop-color="#5FABD9"/><stop offset="1" stop-color="#B381E0"/></linearGradient><linearGradient id="b" x1="20.233" y1="10.591" x2="20.233" y2="46.361" gradientUnits="userSpaceOnUse"><stop stop-color="#5FABD9"/><stop offset="1" stop-color="#B381E0"/></linearGradient></defs></svg>