<svg width="49" height="49" fill="none" xmlns="http://www.w3.org/2000/svg"><g clip-path="url(#a)"><path d="M24.29 0h.407c.645.07 1.16.27 1.546.603 2.329 2.01 4.182 4.503 5.56 7.481.016.038.042.045.077.021 2.411-1.638 5.317-2.284 8.214-2.18 1.262.045 2.273.575 2.746 1.727.166.404.25.98.248 1.725-.002 2.73-.647 5.467-2.196 7.742a.047.047 0 0 0-.006.04.05.05 0 0 0 .026.031 22.025 22.025 0 0 1 7.283 5.353c.5.557.733 1.087.805 1.795v.383c-.076.655-.314 1.205-.714 1.649a22.611 22.611 0 0 1-7.361 5.437.058.058 0 0 0-.034.061.055.055 0 0 0 .01.023c1.547 2.288 2.193 5.047 2.185 7.77-.001.73-.085 1.295-.25 1.696-.5 1.216-1.584 1.696-2.856 1.736-2.939.093-5.628-.638-8.069-2.19a.068.068 0 0 0-.056-.008.068.068 0 0 0-.042.036c-1.3 2.755-3.035 5.134-5.206 7.138-.598.552-1.247.862-1.945.931h-.335c-.651-.063-1.174-.264-1.569-.604-2.335-2.008-4.187-4.5-5.555-7.475-.019-.04-.047-.05-.085-.027-2.38 1.404-4.687 2.186-7.474 2.2-.782.004-1.341-.039-1.68-.128-1.168-.308-1.97-1.41-2.028-2.603-.147-2.963.495-6.012 2.177-8.49a.04.04 0 0 0-.017-.058 22.764 22.764 0 0 1-6.601-4.6C.708 26.43.11 25.78 0 24.685v-.406c.076-.641.277-1.148.604-1.52a21.967 21.967 0 0 1 6.232-4.93c.413-.219.828-.436 1.244-.65.03-.015.036-.036.016-.064-1.618-2.413-2.264-5.34-2.174-8.216.038-1.213.554-2.235 1.692-2.718.44-.187 1.053-.276 1.84-.268 2.762.031 5.364.635 7.672 2.19a.043.043 0 0 0 .063-.018A22.304 22.304 0 0 1 22.47.87c.577-.525 1.085-.785 1.82-.87Zm-6.258 10.243c-.277.2-.752.245-1.023-.003-2.193-2.009-5.228-2.711-8.174-2.596-.897.034-1.179.568-1.198 1.408-.064 2.747.61 5.691 2.463 7.803.15.172.242.328.275.47.172.724-.344.932-.968 1.193a20.352 20.352 0 0 0-7.14 4.963c-.54.58-.806 1.154-.224 1.8a20.332 20.332 0 0 0 7.71 5.35c.762.303.844.935.33 1.533-1.883 2.186-2.563 5.12-2.441 7.959.034.812.47 1.226 1.307 1.24 2.658.049 5.308-.47 7.432-2.067.332-.25.614-.643 1.043-.694.598-.071.815.319 1.03.843a20.493 20.493 0 0 0 5.12 7.373c.788.727 1.337.505 2.044-.17a20.799 20.799 0 0 0 5.01-7.395c.3-.75.914-.858 1.519-.345 2.199 1.863 5.004 2.53 7.857 2.455.862-.022 1.33-.356 1.353-1.264.075-2.781-.513-5.728-2.365-7.836-.355-.404-.6-.852-.228-1.302.11-.134.372-.286.785-.457a20.227 20.227 0 0 0 7.303-5.113c.556-.609.575-1.148 0-1.776a20.283 20.283 0 0 0-7.318-5.121c-.36-.148-.588-.268-.686-.36-.402-.372-.302-.884.045-1.272 1.918-2.15 2.597-5.309 2.45-8.132-.05-.968-.804-1.093-1.601-1.097-2.512-.01-5.04.518-7.05 2.045-.2.152-.398.31-.595.471-.539.443-1.188.316-1.458-.356-1.204-2.998-2.97-5.561-5.3-7.688-.59-.537-1.135-.493-1.726.047-2.348 2.147-3.998 4.649-5.237 7.577-.108.255-.222.427-.344.514Z" fill="url(#b)"/><path d="M23.717 22.118c-2.369-2.531-4.216-6.005-3.79-9.558.316-2.634 1.934-5.307 3.717-7.304.47-.526.956-.793 1.514-.197 1.461 1.562 2.565 3.289 3.31 5.18 1.708 4.334-.157 8.53-3.081 11.783-.591.66-1.047.761-1.67.096Zm.86-1.8c1.631-1.962 2.988-4.529 2.82-7.143-.147-2.271-1.46-4.514-2.877-6.232a.04.04 0 0 0-.047-.01.04.04 0 0 0-.013.01c-1.381 1.713-2.66 3.849-2.85 6.086-.228 2.68 1.165 5.324 2.855 7.337a.056.056 0 0 0 .063.017c.028-.01.045-.03.05-.064Z" fill="url(#c)"/><path d="M15.868 12.34a7.632 7.632 0 0 1 1.517 3.914c.077.782-.256 1.22-1.053 1.145a8.019 8.019 0 0 1-4.017-1.526c-1.37-.993-2.175-3.078-2.371-4.683-.102-.83.174-1.349 1.067-1.262 1.42.14 2.7.615 3.84 1.424.39.278.73.607 1.017.988Zm-.404 3.113c-.352-1.905-1.675-3.227-3.578-3.594-.03-.006-.042.007-.036.037.437 1.957 1.631 3.153 3.582 3.588.027.006.037-.004.032-.03Z" fill="url(#d)"/><path d="M34.02 11.453a7.655 7.655 0 0 1 3.878-1.514c.82-.086 1.258.252 1.175 1.086-.17 1.722-.98 3.82-2.425 4.868a8.003 8.003 0 0 1-3.812 1.489c-.819.097-1.313-.196-1.23-1.063a7.804 7.804 0 0 1 1.42-3.843c.28-.393.61-.734.994-1.023Zm3.13.376c-1.92.432-3.227 1.648-3.617 3.605-.007.034.007.047.04.04 1.97-.442 3.17-1.65 3.599-3.623a.02.02 0 0 0 0-.01.018.018 0 0 0-.013-.013h-.01Z" fill="url(#e)"/><path d="M22.065 23.657c.635.552.648 1.102.039 1.65-3.245 2.923-7.389 4.868-11.775 3.193-1.916-.732-3.625-1.84-5.146-3.207-.588-.53-.639-1.007-.05-1.539 2.328-2.104 5.483-3.958 8.7-3.893 3.127.064 5.896 1.763 8.232 3.796Zm-1.7.808c-1.478-1.234-3.373-2.366-5.267-2.737-2.998-.587-5.92.851-8.159 2.754a.028.028 0 0 0 0 .044c2.658 2.233 6.006 3.695 9.464 2.371 1.387-.53 2.795-1.388 3.963-2.372a.038.038 0 0 0 0-.06Z" fill="url(#f)"/><path d="M44.03 23.92c.474.466.234.961-.203 1.36-2.544 2.325-5.955 4.177-9.506 3.796-2.664-.286-5.243-1.84-7.22-3.574-.645-.564-1.004-1.084-.236-1.77 3.549-3.171 7.803-5.055 12.467-2.963 1.828.82 3.394 1.87 4.697 3.151Zm-15.38.637a15.417 15.417 0 0 0 3.142 2.013c2.366 1.133 4.73 1.13 7.09-.01a15.24 15.24 0 0 0 3.166-2.018c.024-.02.024-.04 0-.062a13.274 13.274 0 0 0-3.937-2.356c-2.057-.789-4.013-.694-6.06.215a14.144 14.144 0 0 0-3.402 2.13.057.057 0 0 0-.014.069.057.057 0 0 0 .015.019Z" fill="url(#g)"/><path d="M25.392 27.006c2.735 3.03 4.624 7.033 3.297 11.132-.682 2.1-1.909 4.017-3.374 5.654-.513.573-.987.682-1.53.095-2.356-2.554-4.323-6.148-3.859-9.696.35-2.68 2.057-5.54 3.912-7.456.578-.597 1.089-.244 1.554.27Zm-.934 1.633c-1.722 2.068-3.118 4.734-2.832 7.484.223 2.145 1.484 4.282 2.845 5.922.02.023.038.023.058 0 1.31-1.53 2.5-3.598 2.811-5.604.444-2.857-1.047-5.648-2.807-7.802a.048.048 0 0 0-.058-.013.05.05 0 0 0-.017.013Z" fill="url(#h)"/><path d="M10.815 39.096c-.712.054-.946-.587-.885-1.167a7.933 7.933 0 0 1 1.499-3.902c1.029-1.408 3.082-2.215 4.76-2.409.833-.096 1.291.23 1.205 1.088a7.854 7.854 0 0 1-1.537 3.99c-1.09 1.46-3.285 2.265-5.042 2.4Zm4.62-5.566c-1.93.384-3.21 1.706-3.61 3.621a.02.02 0 0 0 .006.018.02.02 0 0 0 .017.005c1.926-.428 3.223-1.649 3.631-3.6.008-.037-.006-.052-.044-.044Z" fill="url(#i)"/><path d="M33.632 37.254c-.027-.024-.065-.032-.096-.067a7.995 7.995 0 0 1-1.918-4.372c-.098-.83.231-1.296 1.088-1.207a7.98 7.98 0 0 1 3.976 1.527c1.397 1.028 2.193 3.092 2.381 4.759.093.82-.255 1.263-1.088 1.18a7.89 7.89 0 0 1-4.343-1.82Zm-.093-3.694c.36 1.915 1.675 3.203 3.575 3.587.032.007.046-.007.041-.04a4.312 4.312 0 0 0-3.58-3.584c-.03-.005-.041.007-.036.037Z" fill="url(#j)"/></g><defs><linearGradient id="b" x1="24.5" y1="0" x2="24.5" y2="49" gradientUnits="userSpaceOnUse"><stop stop-color="#5FABD9"/><stop offset="1" stop-color="#B381E0"/></linearGradient><linearGradient id="c" x1="24.493" y1="4.719" x2="24.493" y2="22.57" gradientUnits="userSpaceOnUse"><stop stop-color="#5FABD9"/><stop offset="1" stop-color="#B381E0"/></linearGradient><linearGradient id="d" x1="13.66" y1="9.919" x2="13.66" y2="17.407" gradientUnits="userSpaceOnUse"><stop stop-color="#5FABD9"/><stop offset="1" stop-color="#B381E0"/></linearGradient><linearGradient id="e" x1="35.34" y1="9.926" x2="35.34" y2="17.4" gradientUnits="userSpaceOnUse"><stop stop-color="#5FABD9"/><stop offset="1" stop-color="#B381E0"/></linearGradient><linearGradient id="f" x1="13.633" y1="19.859" x2="13.633" y2="29.119" gradientUnits="userSpaceOnUse"><stop stop-color="#5FABD9"/><stop offset="1" stop-color="#B381E0"/></linearGradient><linearGradient id="g" x1="35.36" y1="19.886" x2="35.36" y2="29.126" gradientUnits="userSpaceOnUse"><stop stop-color="#5FABD9"/><stop offset="1" stop-color="#B381E0"/></linearGradient><linearGradient id="h" x1="24.491" y1="26.422" x2="24.491" y2="44.278" gradientUnits="userSpaceOnUse"><stop stop-color="#5FABD9"/><stop offset="1" stop-color="#B381E0"/></linearGradient><linearGradient id="i" x1="13.663" y1="31.602" x2="13.663" y2="39.099" gradientUnits="userSpaceOnUse"><stop stop-color="#5FABD9"/><stop offset="1" stop-color="#B381E0"/></linearGradient><linearGradient id="j" x1="35.34" y1="31.597" x2="35.34" y2="39.084" gradientUnits="userSpaceOnUse"><stop stop-color="#5FABD9"/><stop offset="1" stop-color="#B381E0"/></linearGradient><clipPath id="a"><path fill="#fff" d="M0 0h49v49H0z"/></clipPath></defs></svg>