<svg width="66" height="66" fill="none" xmlns="http://www.w3.org/2000/svg"><path d="M34.103 0h.258c1.061.21 1.182.913 1.183 1.922.002 4.031.003 8.062.002 12.093 0 .974.283 2.365-.97 2.646-.801.18-1.598-.371-1.6-1.225-.018-4.534-.033-9.07-.046-13.604C32.928.86 33.102.205 34.103 0Z" fill="url(#a)"/><path d="m13.2 8.277-.033.02a1.279 1.279 0 0 0-.434 1.755l6.043 10.018c.365.605 1.15.8 1.755.435l.034-.02a1.28 1.28 0 0 0 .434-1.756L14.956 8.711a1.279 1.279 0 0 0-1.756-.434Z" fill="url(#b)"/><path d="m55.337 8.294-.033-.02a1.279 1.279 0 0 0-1.756.434l-6.045 10.023c-.365.604-.17 1.39.434 1.755l.033.02a1.28 1.28 0 0 0 1.756-.434l6.046-10.023c.364-.604.17-1.39-.435-1.755Z" fill="url(#c)"/><path d="m24.833 8.216-.06.018a1.267 1.267 0 0 0-.838 1.584l2.15 6.986a1.267 1.267 0 0 0 1.583.838l.06-.018a1.267 1.267 0 0 0 .838-1.583l-2.15-6.986a1.267 1.267 0 0 0-1.583-.839Z" fill="url(#d)"/><path d="m43.727 8.233-.059-.018a1.266 1.266 0 0 0-1.582.838l-2.15 6.99c-.206.669.17 1.377.837 1.583l.06.018a1.266 1.266 0 0 0 1.582-.838l2.15-6.99a1.266 1.266 0 0 0-.837-1.583Z" fill="url(#e)"/><path d="m7.32 17.724-.037.036a1.271 1.271 0 0 0-.041 1.797l5.094 5.33a1.27 1.27 0 0 0 1.797.041l.037-.036a1.27 1.27 0 0 0 .041-1.796l-5.094-5.331a1.271 1.271 0 0 0-1.797-.041Z" fill="url(#f)"/><path d="m61.215 17.765-.037-.036a1.272 1.272 0 0 0-1.8.04l-5.084 5.322a1.272 1.272 0 0 0 .04 1.8l.038.035a1.272 1.272 0 0 0 1.798-.041l5.086-5.321a1.272 1.272 0 0 0-.041-1.8Z" fill="url(#g)"/><path d="M37.35 21.462c-9.526-1.711-18.64 4.907-24.396 11.807-.331.398-.61.639-.836.724-.954.36-1.941-.561-1.673-1.53.06-.217.23-.495.51-.836 4.441-5.402 10.39-10.1 17.16-12.113 11.618-3.456 22.566 3.715 29.594 12.308 1.233 1.51-.752 3.162-2.032 1.607-4.614-5.602-11.02-10.655-18.327-11.967Z" fill="url(#h)"/><path d="M37.777 46.346c-8.344 1.977-16.603-3.732-21.588-9.94-.555-.693-.614-1.266-.047-1.96 4.75-5.817 12.263-11.325 20.166-10.271 6.26.834 12.11 5.47 15.987 10.194.588.718.633 1.285.04 2.012-3.67 4.505-8.81 8.602-14.558 9.965ZM43.012 35.4a8.762 8.762 0 1 0-17.524 0 8.762 8.762 0 0 0 17.524 0Zm-24.235.065c1.633 1.684 3.168 3.258 5.06 4.68a.04.04 0 0 0 .049 0 .04.04 0 0 0 .012-.048c-1.36-3.154-1.352-6.304.026-9.45a.026.026 0 0 0-.008-.03.026.026 0 0 0-.03 0 33.38 33.38 0 0 0-5.112 4.74c-.033.036-.032.072.003.108Zm30.946-.102c-1.489-1.742-3.237-3.34-5.078-4.71a.032.032 0 0 0-.039.001.032.032 0 0 0-.01.038c1.366 3.163 1.358 6.319-.024 9.467a.022.022 0 0 0 .006.03.026.026 0 0 0 .031-.001 34.596 34.596 0 0 0 5.114-4.738.065.065 0 0 0 .017-.043.068.068 0 0 0-.017-.044Z" fill="url(#i)"/><path d="m9.003 29.079-1.825-1.395a1.239 1.239 0 0 0-1.736.231L5.378 28a1.239 1.239 0 0 0 .231 1.737l1.825 1.395a1.239 1.239 0 0 0 1.737-.232l.064-.084a1.239 1.239 0 0 0-.232-1.736Z" fill="url(#j)"/><path d="m61.307 27.687-1.816 1.408a1.238 1.238 0 0 0-.219 1.736l.067.085c.418.54 1.196.639 1.736.22l1.815-1.408a1.24 1.24 0 0 0 .22-1.737l-.067-.085a1.238 1.238 0 0 0-1.736-.22Z" fill="url(#k)"/><path d="M39.922 35.401a5.672 5.672 0 1 1-11.344 0 5.672 5.672 0 0 1 11.344 0Zm-2.593 0a3.078 3.078 0 1 0-6.157 0 3.078 3.078 0 0 0 6.157 0Z" fill="url(#l)"/><path d="M33.57 35.533a.77.77 0 1 0 0-1.54.77.77 0 0 0 0 1.54Z" fill="url(#m)"/><path d="M38.19 51.823c-7.531 1.467-14.99-1.602-20.744-6.269-.327-.266-.54-.519-.636-.758-.418-1.035.606-1.993 1.636-1.66.156.05.348.169.575.354a30.35 30.35 0 0 0 8.05 4.712c8.114 3.206 15.905.472 22.381-4.682 1.648-1.312 3.23.71 1.733 1.929-3.762 3.064-8.203 5.44-12.995 6.374Z" fill="url(#n)"/><path d="M56.213 47.401c-.305-.144-.456-.292-.277-.631a.18.18 0 0 1 .087-.082c.362-.171 2.1-.86 2.205-1.142.262-.713.52-1.428.771-2.145.126-.362.498-.437.642-.041.278.755.55 1.509.817 2.262a.206.206 0 0 0 .11.118c.665.296 1.327.592 1.985.888.317.142.346.564.016.72-.65.305-1.303.607-1.961.905a.31.31 0 0 0-.168.18c-.248.692-.5 1.398-.756 2.119-.128.358-.495.555-.662.099a369.99 369.99 0 0 1-.812-2.256.246.246 0 0 0-.134-.143 78.223 78.223 0 0 1-1.863-.85Z" fill="url(#o)"/><path d="M3.083 50.148c-.595-.289-.635-.79-.018-1.063.812-.36 1.623-.724 2.431-1.095a.719.719 0 0 0 .25-.193.295.295 0 0 0 .066-.104c.348-.961.693-1.923 1.034-2.885.175-.494.682-.657.888-.09.302.832.6 1.664.896 2.496.138.388.151.626.56.806.87.382 1.732.774 2.59 1.178a.216.216 0 0 1 .092.083c.246.393.09.687-.308.872-.83.388-1.662.764-2.5 1.13-.346.15-1.127 2.694-1.308 3.195-.216.6-.71.52-.906-.03-.365-1.02-.717-2.037-1.125-3.04a.161.161 0 0 0-.09-.09 67.544 67.544 0 0 1-2.552-1.17Z" fill="url(#p)"/><defs><linearGradient id="a" x1="34.252" y1="0" x2="34.252" y2="16.695" gradientUnits="userSpaceOnUse"><stop stop-color="#B381E0"/><stop offset="1" stop-color="#5FABD9"/></linearGradient><linearGradient id="b" x1="13.184" y1="8.287" x2="20.548" y2="20.495" gradientUnits="userSpaceOnUse"><stop stop-color="#B381E0"/><stop offset="1" stop-color="#5FABD9"/></linearGradient><linearGradient id="c" x1="55.321" y1="8.284" x2="47.954" y2="20.496" gradientUnits="userSpaceOnUse"><stop stop-color="#B381E0"/><stop offset="1" stop-color="#5FABD9"/></linearGradient><linearGradient id="d" x1="24.803" y1="8.225" x2="27.698" y2="17.633" gradientUnits="userSpaceOnUse"><stop stop-color="#B381E0"/><stop offset="1" stop-color="#5FABD9"/></linearGradient><linearGradient id="e" x1="43.698" y1="8.224" x2="40.803" y2="17.635" gradientUnits="userSpaceOnUse"><stop stop-color="#B381E0"/><stop offset="1" stop-color="#5FABD9"/></linearGradient><linearGradient id="f" x1="7.301" y1="17.742" x2="14.152" y2="24.91" gradientUnits="userSpaceOnUse"><stop stop-color="#B381E0"/><stop offset="1" stop-color="#5FABD9"/></linearGradient><linearGradient id="g" x1="61.196" y1="17.747" x2="54.353" y2="24.908" gradientUnits="userSpaceOnUse"><stop stop-color="#B381E0"/><stop offset="1" stop-color="#5FABD9"/></linearGradient><linearGradient id="h" x1="34.249" y1="18.627" x2="34.249" y2="34.072" gradientUnits="userSpaceOnUse"><stop stop-color="#B381E0"/><stop offset="1" stop-color="#5FABD9"/></linearGradient><linearGradient id="i" x1="34.251" y1="24.044" x2="34.251" y2="46.744" gradientUnits="userSpaceOnUse"><stop stop-color="#B381E0"/><stop offset="1" stop-color="#5FABD9"/></linearGradient><linearGradient id="j" x1="8.091" y1="28.381" x2="6.522" y2="30.433" gradientUnits="userSpaceOnUse"><stop stop-color="#B381E0"/><stop offset="1" stop-color="#5FABD9"/></linearGradient><linearGradient id="k" x1="60.399" y1="28.391" x2="61.982" y2="30.432" gradientUnits="userSpaceOnUse"><stop stop-color="#B381E0"/><stop offset="1" stop-color="#5FABD9"/></linearGradient><linearGradient id="l" x1="34.251" y1="29.73" x2="34.251" y2="41.073" gradientUnits="userSpaceOnUse"><stop stop-color="#B381E0"/><stop offset="1" stop-color="#5FABD9"/></linearGradient><linearGradient id="m" x1="33.571" y1="33.994" x2="33.571" y2="35.533" gradientUnits="userSpaceOnUse"><stop stop-color="#B381E0"/><stop offset="1" stop-color="#5FABD9"/></linearGradient><linearGradient id="n" x1="34.249" y1="43.069" x2="34.249" y2="52.192" gradientUnits="userSpaceOnUse"><stop stop-color="#B381E0"/><stop offset="1" stop-color="#5FABD9"/></linearGradient><linearGradient id="o" x1="59.332" y1="43.095" x2="59.332" y2="50.917" gradientUnits="userSpaceOnUse"><stop stop-color="#B381E0"/><stop offset="1" stop-color="#5FABD9"/></linearGradient><linearGradient id="p" x1="7.305" y1="44.36" x2="7.305" y2="54.895" gradientUnits="userSpaceOnUse"><stop stop-color="#B381E0"/><stop offset="1" stop-color="#5FABD9"/></linearGradient></defs></svg>